<?xml version="1.0" encoding="UTF-8"?>
<svg width="56px" height="56px" viewBox="0 0 56 56" version="1.1" xmlns="http://www.w3.org/2000/svg" xmlns:xlink="http://www.w3.org/1999/xlink">
    <!-- Generator: Sketch 50.2 (55047) - http://www.bohemiancoding.com/sketch -->
    <title>more</title>
    <desc>Created with Sketch.</desc>
    <defs>
        <polygon id="path-1" points="0.170496815 0.283189873 36.8519236 0.283189873 36.8519236 18.8318076 0.170496815 18.8318076"></polygon>
    </defs>
    <g id="layout-selects" stroke="none" stroke-width="1" fill="none" fill-rule="evenodd">
        <g id="GoogleOne-desktop" transform="translate(-692.000000, -2872.000000)">
            <g id="AdditionalBenefits" transform="translate(169.000000, 2872.000000)">
                <g id="more-headline" transform="translate(236.000000, 0.000000)">
                    <g id="more" transform="translate(287.000000, 0.000000)">
                        <g id="Group-17" transform="translate(0.000000, 0.071241)">
                            <path d="M52.2546344,41.3822987 L49.1953223,39.9344506 L49.9240357,38.4146532 C53.1410038,31.7017418 53.1064051,24.0123747 49.8277299,17.3178937 L49.0865325,15.8041215 L52.1333605,14.3307544 L52.8749146,15.844881 C56.6065834,23.4651342 56.6465325,32.2192101 52.9829911,39.8625013 L52.2546344,41.3822987 Z" id="Fill-3" fill="#FBBC04"></path>
                            <path d="M27.8580739,55.6455696 C23.7946854,55.6455696 19.7024051,54.7602025 15.8719338,52.9472911 L14.3417427,52.2235443 L15.7988127,49.1835949 L17.3282904,49.9073418 C26.2223032,54.1158481 36.7303287,52.635038 44.0966471,46.1337215 C46.5438828,43.9741772 48.5042395,41.3769114 49.9235006,38.4145823 L50.6518573,36.8947848 L53.7115261,38.3422785 L52.9831694,39.8620759 C51.3677299,43.2334177 49.1348637,46.1904304 46.3469911,48.6512405 C41.1329274,53.2528101 34.5359847,55.6455696 27.8580739,55.6455696" id="Fill-5" fill="#BDC1C6"></path>
                            <path d="M17.4012688,53.6712861 L15.8717911,52.9475392 C2.00947261,46.3880962 -3.89799236,29.8450582 2.70287389,16.0704759 C5.90093758,9.39796962 11.5223389,4.36186835 18.5319694,1.89042532 L20.1285045,1.32758987 L21.2617019,4.50080506 L19.6651669,5.06364051 C13.5083771,7.23452658 8.5707465,11.6574633 5.76254268,17.5183241 C-0.0354191083,29.6164506 5.15331975,44.1463241 17.3285045,49.9075899 L18.8583389,50.6313367 L17.4012688,53.6712861 Z" id="Fill-7" fill="#BDC1C6"></path>
                            <g id="Group-11" transform="translate(16.764331, 0.000000)">
                                <mask id="mask-2" fill="white">
                                    <use xlink:href="#path-1"></use>
                                </mask>
                                <g id="Clip-10"></g>
                                <path d="M33.8047389,18.8318076 L33.0635414,17.3180354 C30.6180892,12.323757 26.6517197,8.41899747 21.5938854,6.02552911 C15.6956943,3.2347443 9.05666242,2.89307342 2.90058599,5.06395949 L1.30405096,5.62679494 L0.170496815,2.45357975 L1.76738854,1.89038987 C8.77701911,-0.580698734 16.3345223,-0.192243038 23.0505987,2.98557975 C28.8093248,5.71044051 33.3253503,10.1571241 36.1107261,15.8446684 L36.8519236,17.3587949 L33.8047389,18.8318076 Z" id="Fill-9" fill="#EA4335" mask="url(#mask-2)"></path>
                            </g>
                            <path d="M45.0804637,49.769362 L42.8297631,47.251843 L44.0967185,46.1339696 C46.5439541,43.9740709 48.5043108,41.3771595 49.923572,38.4148304 L50.6519287,36.8946785 L53.7115975,38.3421722 L52.9832408,39.8623241 C51.3678013,43.2336658 49.134935,46.1906785 46.3470624,48.6514886 L45.0804637,49.769362 Z" id="Fill-15" fill="#34A853"></path>
                        </g>
                        <g id="ic_expand_more_grey600_24dp" transform="translate(11.000000, 11.000000)">
                            <polygon id="Shape" fill="#BDC1C6" fill-rule="nonzero" points="23.885 14 17 20.7989204 10.115 14 8 16.0931174 17 25 26 16.0931174"></polygon>
                            <polygon id="Shape" points="0 0 35 0 35 35 0 35"></polygon>
                        </g>
                    </g>
                </g>
            </g>
        </g>
    </g>
</svg>